<svg xmlns="http://www.w3.org/2000/svg" width="18" height="24"><defs><filter id="a"><feFlood flood-color="#FFF" flood-opacity="1" result="floodOut"/><feComposite operator="atop" in="floodOut" in2="SourceGraphic" result="compOut"/><feBlend in="compOut" in2="SourceGraphic"/></filter></defs><g filter="url(#a)"><path fill-rule="evenodd" d="M14.995 2.998h-1.499C13.496 1.341 11.483.1 8.998.1 6.514.1 4.5 1.341 4.5 2.998H3.1C1.345 2.998.3 4.341.3 5.997v14.998c0 1.656 1.045 2.999 2.8 2.999h11.895a3 3 0 0 0 2.999-2.999V5.997a3 3 0 0 0-2.999-2.999Zm-5.997-1.5c1.657 0 2.999.464 2.999 1.5H6c0-1.036 1.342-1.5 2.998-1.5Zm7.496 19.497c0 .828-.671 1.499-1.499 1.499H3.1c-.927 0-1.598-.671-1.598-1.499v-1.5h14.992v1.5Zm0-3H1.502V5.997c0-.829.671-1.5 1.598-1.5h1.4v4.5H6v-4.5h5.997v4.5h1.499v-4.5h1.499a1.5 1.5 0 0 1 1.499 1.5v11.998Z"/></g></svg>