<svg class="statistic-icon" xmlns="http://www.w3.org/2000/svg" width="48" height="44">
  <path fill="#c7b299" fill-rule="evenodd" d="M46.43 42.748c0 .691-.94 1.251-1.621 1.251H1.233c-.681 0-1.233-.56-1.233-1.251 0-.178.552-1.251 1.233-1.251h43.576c.681 0 1.621 1.073 1.621 1.251ZM21.769 22.212c.831.226.54.337.841.337.33 0 .66-.133.903-.398a1.263 1.263 0 0 0-.06-1.768c-2.116-2.001-1.663-6.069.155-8.243 3.142-3.247 3.01-8.81-.156-11.804-.498-.202-1.279-.23-1.744.062a1.263 1.263 0 0 0 .061 1.768c1.9 1.797 1.858 5.822-.087 8.283-1.279 2.211-2.043 3.785-2.097 5.947-.059 2.363.717 4.428 2.184 5.816Zm26.23-2.598v2.526c0 3.314-2.76 6.113-6.154 6.113H39.91c-2.689 5.27-7.67 9.05-13.505 9.05h-6.767c-7.431 0-13.476-6.128-13.476-13.661V11.231c0-.69.553-1.251 1.234-1.251h7.915c1.607-2.476 1.535-6.127.309-7.814-1.056-.472-1.083-1.263-.42-1.768.267-.292 1.048-.264 1.546-.061 3.164 2.993 2.622 8.556.155 11.803-1.071 2.174-2.271 6.242-.155 8.243.498.472.525 1.263.061 1.768-.465.506-1.246.533-1.187.062-2.025-1.389-2.801-3.454-2.742-5.817.034-.906.344-2.696.882-3.914H8.63v11.16c0 6.154 4.938 11.159 11.008 11.159h6.767c6.069 0 11.008-5.006 11.008-11.159v-11.16h-9.279c-.681 0-1.234-.56-1.234-1.251 0-.69.553-1.251 1.234-1.251h10.513c.681 0 1.234.561 1.234 1.251v2.144h1.964c3.394 0 6.154 2.799 6.154 6.239Zm-2.468 0c0-2.061-1.653-3.738-3.686-3.738h-1.964v9.875h1.964c2.033 0 3.686-1.011 3.686-3.611v-2.526Z"/>
</svg>
