<svg xmlns="http://www.w3.org/2000/svg" width="44" height="44">
  <path fill-rule="evenodd" d="M43.927 21.849c0-1.62-1.167-3.349-2.606-3.856-1.44-.51-2.835-1.758-2.511-2.743-1.135-.982-1.03-2.855-.374-4.09 1.484-1.523.258-3.57-.887-4.718-1.145-1.146-3.193-1.541-4.573-.885-1.379.657-3.25.764-4.231.357-.981-.405-2.228-1.802-2.245-3.241C25.493 1.233 23.763.67 22.143.67s-3.349.563-3.861 2.003c-.512 1.439-1.76 2.835-2.741 3.241-.982.407-2.852.3-4.231-.357-1.379-.656-3.427-.261-4.573.885C5.591 7.59 5.194 9.637 5.85 11.16c.657 1.236.761 3.106.353 4.089-.407.982-1.798 2.234-3.237 2.744-1.44.507-2.607 2.236-2.607 3.856 0 1.621 1.167 3.349 2.607 3.861 1.439.512 2.831 1.764 3.239 2.743.408.981.302 2.851-.355 4.23-.656 1.927-.259 3.426.887 4.572 1.146 1.147 3.193 1.544 4.573.887 1.38-.656 3.249-.762 4.231-.354.982.408 2.229 1.806 2.741 3.532.512 1.148 2.241 2.313 3.861 2.313s3.35-1.165 4.357-2.313c.017-1.726 1.263-3.124 2.244-3.534.981-.408 2.853-.3 4.232.356 1.379.657 3.428.26 4.573-.887 1.145-1.146 2.371-2.645.887-4.572-.656-1.38-.763-3.25.344-4.23-.296-.982 1.101-2.231 2.541-2.743 1.439-.512 2.606-2.24 2.606-3.861Zm-21.784 7.992a7.983 7.983 0 0 1-7.993-7.983 7.988 7.988 0 0 1 7.993-7.993c4.411 0 7.984 3.575 7.984 7.993a7.98 7.98 0 0 1-7.984 7.983Z"/>
</svg>
