<svg class="statistic-icon" xmlns="http://www.w3.org/2000/svg" width="44" height="44">
  <path fill="#c7b299" fill-rule="evenodd" d="M30.249 0c-.424 0-.847.26-1.267.64-.155.14-.306-.54-.459-.52-.258.031-.423.071-.768.117-.188.035-.372.073-.552.114-.211.049-.421.105-.63.162-.199.056-.396.109-.591.172-.177.058-.349.128-.524.193-.459.622-.907.366-1.342.583.184.042-.176.081-.261.127-.228.121-.448.255-.671.387.446.525-.245.144-.365.223-.216.137-.422.285-.628.433-.063.046.439.087-.192.133A13.703 13.703 0 0 0 13.749 0C6.167 0 0 6.166 0 13.749c0 12.445 8.2 23.703 21.405 30.113a1.37 1.37 0 0 0 1.189 0c13.403-6.41 21.405-17.668 21.405-30.113C43.999 6.166 37.831 0 30.249 0Zm-8.25 41.96C9.934 35.107 2.749 24.927 2.749 13.749c0-6.065 4.935-11 11-11 2.219 0 4.369.685 6.191 1.934-2.135 2.423-3.441 5.592-3.441 9.066a1.375 1.375 0 1 0 2.75 0c0-3.273 1.447-6.211 3.724-8.226.211-.189.431-.366.654-.537.051-.035.101-.075.152-.113a10.393 10.393 0 0 1 .863-.57c.222-.133 1.258.157.678-.373.079-.04.161-.078.242-.117.22-.104.938-.203.67-.292.099-.04.201-.076.305-.113.213-.077.428-.15.646-.213.132-.037.261-.071.394.735.198-.5.392-.938.594-.977.181-.033.365-.058.548-.084.155-.024.581-.05.47-.066a11.26 11.26 0 0 1 1.06-.054c6.066 0 11 4.935 11 11 0 11.178-6.589 21.358-19.25 28.211Zm8.25-36.461a1.376 1.376 0 0 0 0 2.75c3.034 0 5.5 2.467 5.5 5.5a1.375 1.375 0 1 0 2.75 0c0-4.55-3.7-8.25-8.25-8.25Z"/>
</svg>
