<svg xmlns="http://www.w3.org/2000/svg" width="64" height="56"><defs><filter id="a"><feFlood flood-color="#FFF" flood-opacity="1" result="floodOut"/><feComposite operator="atop" in="floodOut" in2="SourceGraphic" result="compOut"/><feBlend in="compOut" in2="SourceGraphic"/></filter></defs><g filter="url(#a)"><path fill-rule="evenodd" d="m52.873 55.127 5.252-9.188 5.252 9.188H52.873Zm-6.57-9.956h10.508l-5.254 9.188-5.254-9.188Zm5.254-10.721 5.254 9.191H46.303l5.254-9.191Zm-11.82-.764h10.506l-5.254 9.188-5.252-9.188Zm5.252-10.72 5.254 9.187H39.737l5.252-9.187Zm-11.821-.765h10.507l-5.254 9.188-5.253-9.188Zm5.253-10.722 5.254 9.192H33.168l5.253-9.192ZM26.6 10.713h10.507l-5.253 9.191-5.254-9.191ZM31.854.6l5.253 8.584H26.6L31.854.6ZM20.32 20.671l4.966-9.192 5.254 9.192H20.32Zm-6.856 11.482 5.254-9.187 5.253 9.187H13.464ZM6.896 43.641l5.254-9.191 5.253 9.191H6.896ZM.331 55.127l5.251-9.188 5.253 9.188H.331Zm17.072-9.956-5.253 9.188-5.254-9.188h10.507Zm6.568-11.485-5.253 9.188-5.254-9.188h10.507Zm6.569-11.485-5.254 9.188-4.966-9.188h10.22Zm6.567 32.926H26.6l5.254-9.188 5.253 9.188Zm6.568-9.956-5.254 9.188-5.253-9.188h10.507Zm6.568 9.956H39.737l5.252-9.188 5.254 9.188Z"/></g></svg>