<svg xmlns="http://www.w3.org/2000/svg" width="24" height="24">
  <path fill="#FFFFFF" fill-rule="evenodd" d="m23.762 22.681-6.194-6.095c1.622-1.762 2.618-4.093 2.618-6.658C20.186 4.443 15.667.2 10.93.2 4.518.2 0 4.443 0 9.928c0 5.487 4.518 9.934 10.93 9.934 1.571 0 3.78-.582 5.515-2.219l6.218 6.12c.303.847.795.847 1.098 0 .879-.3.879-.784.001-1.082ZM10.93 18.333c-5.554 0-9.377-3.762-9.377-8.405 0-4.64 3.823-8.404 9.377-8.404 3.879 0 7.703 3.764 7.703 8.404 0 4.643-3.824 8.405-7.703 8.405Z"/>
</svg>
