<svg xmlns="http://www.w3.org/2000/svg" width="52" height="36">
  <path fill-rule="evenodd" d="m51.411 14.34-9.49 19.422c-.595 1.222-2.193 2.221-3.543 2.221H3.8c-2.07 0-2.689-1.002-2.09-2.221l9.493-19.422c.593-1.223 2.188-2.225 3.538-2.225H50.39c1.004 0 2.41 1.002 1.021 2.225ZM8.999 13.245.738 30.147V7.983c0-1.365 1.105-2.483 2.457-2.481H14.12V4.57c0-.95.274-2.436 1.81-3.14-.137-.708.787-1.096 1.77-1.096h6.29c2.2 0 3.684 1.766 3.684 4.236v.93h10.817c1.35 0 2.457 1.118 2.457 2.483v1.653H14.741c-2.267 0-4.541 1.55-5.742 3.609Zm7.47-7.743h8.748V4.57c0-1.201-.551-1.755-1.229-1.755h-6.29c-.326 0-.078.129-.866.368-.23.234-.363.546-.363 1.387v.932Z"/>
</svg>
