<svg class="statistic-icon" xmlns="http://www.w3.org/2000/svg" width="44" height="44">
  <path fill="#c7b299" fill-rule="evenodd" d="M28.872 23.373H15.125a1.376 1.376 0 0 0 0 2.75h13.747a1.375 1.375 0 1 0 0-2.75Zm2.75-8.248H12.376c-.759 0-1.276.616-1.276 1.375s.517 1.374 1.276 1.374h19.246a1.374 1.374 0 1 0 0-2.749ZM21.999.3C9.852.3.3 8.619.3 19.249c0 6.075 2.927 11.484 7.951 15.011v9.735l9.636-5.847c1.334.22 2.705.348 4.112.348 12.149 0 21.996-8.617 21.996-19.247C43.995 8.619 34.148.3 21.999.3Zm0 35.446c-1.606 0-3.156-.187-4.647-.504l-6.472 3.89.086-6.376C6.5 29.772 2.752 24.839 2.752 19.249c0-9.11 8.617-16.497 19.247-16.497 10.629 0 19.246 7.387 19.246 16.497 0 9.111-8.617 16.497-19.246 16.497Z"/>
</svg>
