<svg xmlns="http://www.w3.org/2000/svg" width="44" height="44">
  <path fill="#c7b299" fill-rule="evenodd" d="M19.937 30.249c5.688 0 10.312-5.629 10.312-12.547 0-6.919-4.624-12.546-10.312-12.546-2.813 0-5.44 1.346-7.395 3.788-1.882 2.353-2.919 5.464-2.918 8.758 0 6.92 4.626 12.547 10.313 12.547Zm0-22.344c4.169 0 7.562 4.395 7.562 9.797 0 5.404-3.393 9.797-7.562 9.797-4.169 0-7.563-4.393-7.565-9.797 0-5.402 3.393-9.797 7.565-9.797Zm8.661 20.969c-.76 0-1.375.615-1.375 1.375 0 1.651.615 1.375 1.375 1.375 4.701 0 8.526 3.826 8.526 8.528 0 .603-.494 1.097-.894 1.097H3.848a1.1 1.1 0 0 1-1.099-1.097c0-4.702 3.825-8.528 8.524-8.528 1.057 0 1.375.276 1.375-1.375 0-.76-.318-1.375-1.375-1.375C5.57 28.874 0 33.934 0 40.152a3.851 3.851 0 0 0 3.848 3.847H36.23c1.916 0 3.644-1.725 3.644-3.847 0-6.218-5.059-11.278-11.276-11.278ZM20.942 3.628c.984-.178 2.034-.877 3.678-.877 3.611 0 7.004 4.395 7.004 9.795 0 .97-.107 1.92-.319 2.829-.175.739.285 1.479 1.023 1.895.106.26.211.36.316.36.624 0 1.188-.995 1.337-1.33.259-1.412.393-2.574.393-3.754C34.374 5.628 29.75 0 24.62 0c-2.122 0-3.682.435-5.076 1.26-.655.387-.87 1.231.046 1.884-.144.653.701.996 1.352.484Zm12.057 19.746a1.374 1.374 0 1 0 0 2.75c4.701 0 8.251 4.296 8.251 8.618 0 .156-.03.788-.095.448-.307.696.006 1.507.699 2.41.486.27.37-.476.558-.476.527 0 1.029-.306 1.257-.816.219-.494.33-1.021.33-1.569 0-6.212-4.783-11.365-11-11.365Z"/>
</svg>
