<svg class="statistic-icon" xmlns="http://www.w3.org/2000/svg" width="54" height="44">
  <path fill="#c7b299" fill-rule="evenodd" d="M52.31 40.611H1.69c-.931 0-1.39.758-1.39 1.692 0 .934.459 1.692 1.39 1.692h50.62a1.691 1.691 0 0 0 0-3.384ZM28.687 6.771V3.387h3.933c.373 0 1.13-.758 1.13-1.693C33.75.761 32.993.3 32.62.3H21.938c-.238 0-1.687.461-1.687 1.394 0 .935 1.449 1.693 1.687 1.693h3.375s-.012 3.523 0 3.384C11.193 7.649.3 19.462.3 33.843v1.692c0 .934.459 1.692 1.39 1.692h50.62c.931 0 1.688-.758 1.688-1.692v-1.692c0-14.381-11.191-26.194-25.311-27.072ZM3.377 33.843C3.377 20.76 13.954 10.155 27 10.155c13.47 0 23.623 10.605 23.623 23.688H3.377Z"/>
</svg>
