<svg xmlns="http://www.w3.org/2000/svg" width="49" height="49">
  <path fill-rule="evenodd" d="M47.667 19.717 33.401 33.985.534 48.463 15.1 15.591 29.278 1.327a1.587 1.587 0 0 1 2.248 0 1.587 1.587 0 0 1 0 2.248L17.683 17.422 9.106 36.887l2.999 2.999 19.468-8.573 13.846-13.844c.971-.622 2.011-.622 2.248 0 .622 1.431.622 2.521 0 2.248Zm-17.922 8.749c-.312.307-.475.465-1.125.465-.409 0-.815-.158-1.125-.465a1.593 1.593 0 0 1 0-2.25l13.331-13.332c.623-.624 1.627-.624 2.934 0a13.855 13.855 0 0 0 0 2.25L29.745 28.466Zm-3.481-3.481a1.59 1.59 0 0 1-1.125.464c-.405 0-.813-.156-.989-.464-.757-.621-.757-1.631 0-2.251L37.348 9.402a1.59 1.59 0 0 1 2.25 0c.621.828.621 1.898 0 2.25L26.264 24.985Zm-3.481-3.483c-.31.311-.133.466-1.124.466a1.59 1.59 0 0 1-1.125-2.715L33.866 5.922a1.586 1.586 0 0 1 2.25 0c.623.62.623 1.625 0 2.25l-13.333 13.33Z"/>
</svg>
